<?xml version="1.0" ?><svg enable-background="new 0 0 52 52" id="Layer_1" version="1.1" viewBox="0 0 52 52" xml:space="preserve" xmlns="http://www.w3.org/2000/svg" xmlns:xlink="http://www.w3.org/1999/xlink"><g><g><g><path d="M50,45.5H14v-18h36V45.5z M16,43.5h32v-14H16V43.5z"/></g></g><g><g><path d="M41,41.5c-2.7568359,0-5-2.2431641-5-5s2.2431641-5,5-5s5,2.2431641,5,5S43.7568359,41.5,41,41.5z M41,33.5     c-1.6542969,0-3,1.3457031-3,3s1.3457031,3,3,3s3-1.3457031,3-3S42.6542969,33.5,41,33.5z"/></g></g><g><g><path d="M28,40.5c-2.2055664,0-4-1.7944336-4-4s1.7944336-4,4-4s4,1.7944336,4,4S30.2055664,40.5,28,40.5z M28,34.5     c-1.1030273,0-2,0.8969727-2,2s0.8969727,2,2,2s2-0.8969727,2-2S29.1030273,34.5,28,34.5z"/></g></g><g><g><path d="M44,16.5H32v-8h12V16.5z M34,14.5h8v-4h-8V14.5z"/></g></g><g><g><rect height="3" width="2" x="40" y="6.5"/></g></g><g><g><rect height="3" width="2" x="34" y="6.5"/></g></g><g><g><polygon points="17,37.5 2,37.5 2,19.5 37,19.5 37,15.5 39,15.5 39,21.5 4,21.5 4,35.5 17,35.5    "/></g></g><g><g><rect height="6" width="2" x="16" y="33.5"/></g></g></g></svg>