<?xml version="1.0" ?><!DOCTYPE svg  PUBLIC '-//W3C//DTD SVG 1.1//EN'  'http://www.w3.org/Graphics/SVG/1.1/DTD/svg11.dtd'><svg enable-background="new 0 0 91 91" height="91px" id="Layer_1" version="1.1" viewBox="0 0 91 91" width="91px" xml:space="preserve" xmlns="http://www.w3.org/2000/svg" xmlns:xlink="http://www.w3.org/1999/xlink"><g><g><path d="M45.611,28.757c-4.254,0-7.717,3.461-7.717,7.714c0,3.039,1.77,5.665,4.328,6.922c-1.656,2.845-4.313,7.456-7.287,12.624    c-4.984,8.658-10.635,18.473-12.789,22.041C21.43,79.248,21.813,80.791,23,81.51c0.406,0.244,0.854,0.361,1.295,0.361    c0.852,0,1.682-0.434,2.154-1.215c0.492-0.816,1.17-1.963,1.971-3.33c8.496,4.377,12.623,6.373,14.723,7.293v3.795    c0,1.389,1.125,2.514,2.512,2.514c1.389,0,2.514-1.125,2.514-2.514v-3.941c2.068-1.135,5.965-3.604,13.756-8.906    c1.27,2.121,2.305,3.773,2.98,4.709c0.814,1.125,2.383,1.377,3.51,0.564c1.123-0.814,1.375-2.385,0.563-3.51    c-1.645-2.273-6.107-10.066-10.424-17.604c-3.715-6.488-7.264-12.684-9.545-16.335c2.555-1.26,4.322-3.884,4.322-6.92    C53.33,32.218,49.867,28.757,45.611,28.757z M45.611,33.783c1.486,0,2.693,1.206,2.693,2.688c0,1.484-1.207,2.691-2.693,2.691    c-1.484,0-2.691-1.207-2.691-2.691C42.92,34.989,44.127,33.783,45.611,33.783z M43.143,51.84v14.971l-6.924-2.953    c1.029-1.783,2.064-3.58,3.072-5.332C40.635,56.189,41.949,53.908,43.143,51.84z M30.951,72.979    c0.861-1.484,1.783-3.08,2.74-4.736l9.451,4.031v6.814C40.1,77.627,35.354,75.242,30.951,72.979z M48.168,78.629V72.6    c2.617-1.174,6.57-3.658,8.977-5.227c0.77,1.338,1.516,2.629,2.225,3.85C55.252,74.021,51.01,76.834,48.168,78.629z M54.648,63.02    c-1.869,1.219-4.486,2.828-6.48,3.951V51.768c1.842,3.152,3.947,6.828,6.025,10.455C54.346,62.49,54.496,62.754,54.648,63.02z"/><path d="M47.086,0.929c-1.211-0.679-2.742-0.249-3.422,0.96l-6.369,11.334c-0.486,0.864-0.418,1.934,0.174,2.73    c0.592,0.796,1.596,1.17,2.566,0.951l5.074-1.137l-3.514,6.756c-0.641,1.23-0.162,2.748,1.068,3.389    c0.371,0.192,0.768,0.283,1.158,0.283c0.906,0,1.783-0.492,2.23-1.354l6.008-11.549c0.451-0.867,0.357-1.917-0.238-2.691    s-1.588-1.134-2.541-0.92l-4.844,1.086l3.607-6.418C48.725,3.141,48.295,1.61,47.086,0.929z"/><path d="M52.553,27.986c0.17,1.263,1.248,2.179,2.488,2.179c0.111,0,0.223-0.007,0.336-0.021l12.904-1.728    c0.969-0.13,1.775-0.81,2.066-1.743c0.289-0.933,0.014-1.949-0.711-2.607l-3.676-3.339l7.777-0.786    c1.381-0.139,2.387-1.371,2.246-2.752c-0.139-1.381-1.379-2.385-2.752-2.248l-13.391,1.354c-0.986,0.1-1.822,0.771-2.133,1.714    s-0.037,1.979,0.697,2.646l3.852,3.499l-7.547,1.011C53.336,25.346,52.369,26.61,52.553,27.986z"/><path d="M67.674,35.749c-0.949,0.287-1.641,1.107-1.764,2.092l-0.645,5.161l-5.17-5.592c-0.941-1.018-2.531-1.08-3.551-0.139    c-1.018,0.941-1.08,2.531-0.139,3.551l8.838,9.562c0.484,0.523,1.156,0.807,1.846,0.807c0.256,0,0.516-0.039,0.768-0.121    c0.932-0.299,1.604-1.109,1.725-2.08l0.615-4.925l5.115,5.909c0.906,1.049,2.494,1.164,3.543,0.256s1.164-2.494,0.256-3.545    l-8.809-10.175C69.652,35.758,68.623,35.461,67.674,35.749z"/><path d="M32.715,18.007c-0.311-0.942-1.146-1.614-2.133-1.714L17.195,14.94c-1.381-0.136-2.613,0.867-2.752,2.248    c-0.141,1.381,0.865,2.613,2.246,2.752l7.775,0.786l-3.678,3.339c-0.723,0.658-1,1.675-0.709,2.607    c0.291,0.934,1.096,1.613,2.064,1.743l12.906,1.728c0.113,0.015,0.225,0.021,0.336,0.021c1.24,0,2.318-0.916,2.488-2.179    c0.184-1.376-0.783-2.64-2.158-2.823l-7.549-1.011l3.852-3.499C32.754,19.987,33.025,18.95,32.715,18.007z"/><path d="M11.57,50.229c1.049,0.906,2.635,0.795,3.545-0.256l5.113-5.909l0.617,4.925c0.121,0.971,0.793,1.781,1.725,2.08    c0.252,0.082,0.512,0.121,0.768,0.121c0.689,0,1.361-0.283,1.846-0.807l8.838-9.562c0.941-1.02,0.879-2.61-0.141-3.551    c-1.018-0.941-2.607-0.88-3.551,0.139l-5.17,5.594l-0.646-5.163c-0.123-0.984-0.814-1.805-1.764-2.092s-1.979,0.01-2.629,0.76    l-8.807,10.177C10.406,47.734,10.521,49.32,11.57,50.229z"/></g></g></svg>